<svg width="207" height="22" viewBox="0 0 207 22" fill="none" xmlns="http://www.w3.org/2000/svg">
<path d="M38.3091 17.3975H34.538V0.553478H38.5605L44.0159 9.00061L45.4238 11.2632H45.6752L45.6249 9.00061V0.553478H49.3959V17.3975H45.3735L40.1443 9.42799L38.5102 6.83855H38.2588L38.3091 9.42799V17.3975ZM57.8879 17.6489C53.5386 17.6489 51.5525 15.1097 51.5525 11.1124C51.5525 7.06481 53.966 4.5005 57.913 4.5005C61.7092 4.5005 63.9467 6.76313 63.9467 10.0565C63.9467 10.7604 63.8461 11.4895 63.7707 11.9169H55.0973C55.1727 13.6767 55.8766 14.3806 57.9381 14.3806C59.4465 14.3806 60.1002 14.0538 60.1002 13.2745V13.1236H63.821V13.375C63.821 16.065 61.5081 17.6489 57.8879 17.6489ZM57.7873 7.59275C55.9772 7.59275 55.2733 8.29668 55.1224 9.62912H60.3265C60.4019 8.32182 59.5471 7.59275 57.7873 7.59275ZM68.6361 17.3975H64.4125L68.611 11.1124V10.8861L64.4125 4.7519H68.7618L71.477 8.97547H71.7032L74.3429 4.7519H78.5665L74.3681 11.037V11.2884L78.5665 17.3975H74.1921L71.5021 13.199H71.2507L68.6361 17.3975ZM86.0703 17.4477C82.7769 17.4477 81.1931 16.241 81.1931 13.2493V7.8693H79.1819V4.7519H81.2936L81.9976 1.81049H84.9641V4.7519H88.534V7.8693H84.9641V12.8219C84.9641 13.9281 85.3412 14.0538 86.9753 14.0538H88.534V17.1963C87.9307 17.322 86.9502 17.4477 86.0703 17.4477Z" fill="#1B1B1B"/>
<path d="M98.072 17.6489C93.1194 17.6489 90.8316 15.6376 90.8316 11.9169V11.5901H94.5272V11.8415C94.5272 13.7018 95.206 14.2298 98.248 14.2298C100.385 14.2298 100.913 13.8024 100.913 12.6711C100.913 11.5398 100.661 11.1375 98.2983 10.7353L95.3317 10.2073C92.1138 9.65426 90.7562 8.02014 90.7562 5.40555C90.7562 2.84124 92.6417 0.302076 97.4687 0.302076C102.27 0.302076 104.282 2.79096 104.282 6.13462V6.33574H100.561V6.0592C100.561 4.29938 99.8318 3.72115 97.343 3.72115C95.1809 3.72115 94.5021 4.19882 94.5021 5.25471C94.5021 6.33574 94.9546 6.58714 96.9156 6.96425L99.9073 7.54247C103.452 8.22126 104.659 10.0816 104.659 12.5454C104.659 15.2354 102.849 17.6489 98.072 17.6489ZM110.621 17.3975H106.875V0.553478H110.621V6.71284H110.771C111.45 5.53125 112.833 4.5005 114.844 4.5005C118.112 4.5005 119.47 6.6877 119.47 9.37771V17.3975H115.699V10.1319C115.699 8.3721 115.121 7.7436 113.21 7.7436C111.4 7.7436 110.621 8.34696 110.621 10.2576V17.3975ZM125.727 3.31891H122.031L121.981 0.553478H125.727V3.31891ZM125.802 17.3975H122.031V4.7519H125.802V17.3975ZM131.95 21.621H128.179V4.7519H131.673V6.61228H131.799C132.478 5.25471 133.936 4.5005 135.821 4.5005C139.391 4.5005 141.252 7.08995 141.252 11.0873C141.252 15.0594 139.316 17.6489 135.897 17.6489C133.886 17.6489 132.654 16.8192 132.075 15.7382H131.95V21.621ZM131.95 12.0929C131.95 13.8024 132.93 14.4309 134.715 14.4309C136.902 14.4309 137.481 13.375 137.481 11.0873C137.481 8.77435 136.902 7.71846 134.715 7.71846C132.93 7.71846 131.95 8.34696 131.95 10.0565V12.0929ZM147.409 17.3975H143.663V4.7519H147.157V6.96425H147.308C147.987 5.53125 149.294 4.5005 151.456 4.5005C153.618 4.5005 154.926 5.48097 155.554 6.96425H155.68C156.384 5.58153 157.641 4.5005 159.979 4.5005C163.247 4.5005 164.58 6.6877 164.58 9.37771V17.3975H160.809V10.1319C160.809 8.3721 160.281 7.7436 158.445 7.7436C156.736 7.7436 156.007 8.29668 156.007 10.1319V17.3975H152.236V10.1319C152.236 8.3721 151.683 7.7436 149.873 7.7436C148.163 7.7436 147.409 8.29668 147.409 10.0816V17.3975ZM173.127 17.6489C168.777 17.6489 166.791 15.1097 166.791 11.1124C166.791 7.06481 169.205 4.5005 173.152 4.5005C176.948 4.5005 179.185 6.76313 179.185 10.0565C179.185 10.7604 179.085 11.4895 179.009 11.9169H170.336C170.411 13.6767 171.115 14.3806 173.177 14.3806C174.685 14.3806 175.339 14.0538 175.339 13.2745V13.1236H179.06V13.375C179.06 16.065 176.747 17.6489 173.127 17.6489ZM173.026 7.59275C171.216 7.59275 170.512 8.29668 170.361 9.62912H175.565C175.641 8.32182 174.786 7.59275 173.026 7.59275ZM185.241 17.3975H181.495V4.7519H184.99V6.96425H185.14C185.819 5.53125 187.177 4.5005 189.389 4.5005C192.683 4.5005 194.09 6.6877 194.09 9.37771V17.3975H190.319V10.1319C190.319 8.3721 189.741 7.7436 187.83 7.7436C186.02 7.7436 185.241 8.32182 185.241 10.2325V17.3975ZM202.537 17.4477C199.243 17.4477 197.659 16.241 197.659 13.2493V7.8693H195.648V4.7519H197.76L198.464 1.81049H201.43V4.7519H205V7.8693H201.43V12.8219C201.43 13.9281 201.807 14.0538 203.442 14.0538H205V17.1963C204.397 17.322 203.416 17.4477 202.537 17.4477Z" fill="#2074FF"/>
<path d="M13.7919 0.397461H1.85628V5.68264H7.36889L0 13.1044L3.71257 16.8715L11.1377 9.44973V14.969C11.1377 16.4234 12.3167 17.6024 13.7711 17.6024H25.7067V12.3172H20.1941L27.563 4.95171L23.7942 1.18461L16.4253 8.55013V3.03087C16.4253 1.57648 15.2463 0.397461 13.7919 0.397461Z" fill="#2074FF"/>
</svg>
